# xmcd
#
# Track frame offsets:
#	150
#	21132
#	35923
#	53369
#	68401
#	86199
#	105254
#	120183
#	134557
#	146533
#	160744
#	180834
#	198219
#	217668
#	237612
#
# Disc length: 3377 seconds
#
# Revision: 1
# Processed by: cddbd v1.5.2PL0 Copyright (c) Steve Scherf et al.
# Submitted via: audiograbber 1.83.01
#
DISCID=bb0d2f0f
DTITLE=Chartbuster - CB60081 
DYEAR=1900
DGENRE=karaoke
TTITLE0=Restless Heart - The Bluest Eyes In Texas
TTITLE1=Lorrie Morgan - Trainwreck Of Emotion  (CB)
TTITLE2=Randy Travis - Deeper Than The Holler ( cb)
TTITLE3=Tanya Tucker - Highway Robbery (cb)
TTITLE4=Dwight Yoakam - I Sang Dixie (cb)
TTITLE5=KT Oslin - I'll Always Come Back
TTITLE6=Ricky Van Shelton - I'll Leave This World Loving You ( cb)
TTITLE7=Forrester Sisters, The - You Again (c b)
TTITLE8=Exile - Woke Up In Love
TTITLE9=Patty Loveless - If My Heart Had Windows (cb )
TTITLE10=Alabama - My Home's In Alabama (cb)
TTITLE11=Judds, The - Give A Little Love (cb)
TTITLE12=Ricky Skaggs - Country Boy (c b)
TTITLE13=Kathy Mattea - Goin' Gone (CB)
TTITLE14=George Strait - Does Fort Worth Ever Cross Your Mind (cb )
EXTD=
EXTT0=
EXTT1=
EXTT2=
EXTT3=
EXTT4=
EXTT5=
EXTT6=
EXTT7=
EXTT8=
EXTT9=
EXTT10=
EXTT11=
EXTT12=
EXTT13=
EXTT14=
PLAYORDER=
